<svg xmlns="http://www.w3.org/2000/svg" viewBox="0 0 1600 900">
  <defs><linearGradient id="bg" x1="0" y1="0" x2="1" y2="1"><stop stop-color="#21463e"/><stop offset=".4" stop-color="#2f7f72"/><stop offset="1" stop-color="#82d0c0"/></linearGradient></defs>
  <rect width="1600" height="900" fill="url(#bg)"/><rect width="1600" height="900" fill="#081411" fill-opacity=".18"/>
  <rect x="104" y="94" width="1392" height="712" rx="32" fill="#fff7ed" fill-opacity=".08" stroke="#fff7ed" stroke-opacity=".24"/>
  <rect x="148" y="140" width="1304" height="88" rx="22" fill="#fff7ed" fill-opacity=".1"/><rect x="148" y="262" width="850" height="508" rx="28" fill="#081d18" fill-opacity=".34"/><rect x="1034" y="262" width="418" height="508" rx="28" fill="#fff7ed" fill-opacity=".11"/>
  <rect x="226" y="344" width="694" height="38" rx="19" fill="#fff7ed" fill-opacity=".7"/><rect x="226" y="418" width="586" height="24" rx="12" fill="#fff7ed" fill-opacity=".22"/><rect x="226" y="474" width="612" height="24" rx="12" fill="#fff7ed" fill-opacity=".22"/><path d="M252 602l132 54 194-194" stroke="#82d0c0" stroke-width="24" stroke-linecap="round" stroke-linejoin="round" fill="none"/>
  <rect x="1096" y="332" width="288" height="182" rx="26" fill="#2f7f72"/><rect x="1096" y="542" width="288" height="112" rx="22" fill="#21463e"/><text x="150" y="742" fill="#fff7ed" fill-opacity=".9" font-size="102" font-family="Arial, sans-serif" font-weight="700">EZSIGN</text>
  <text x="1320" y="742" text-anchor="end" fill="#fff7ed" fill-opacity=".82" font-size="42" font-family="Arial, sans-serif">Sign Overview</text>
</svg>
