<svg width="1600" height="1200" viewBox="0 0 1600 1200" fill="none" xmlns="http://www.w3.org/2000/svg">
<rect width="1600" height="1200" fill="#08161C"/>
<rect width="1600" height="1200" fill="url(#bg)"/>
<g opacity="0.6">
<path d="M160 206H512L652 346V664L504 812H160V206Z" fill="url(#panel)" stroke="rgba(102,219,204,0.26)"/>
<path d="M1092 150H1430V520L1328 630H1030V210L1092 150Z" fill="url(#panel2)" stroke="rgba(255,255,255,0.12)"/>
<path d="M801 182V1004" stroke="rgba(255,255,255,0.08)" stroke-width="2"/>
<path d="M412 595H1178" stroke="rgba(255,255,255,0.08)" stroke-width="2"/>
</g>
<g opacity="0.92">
<circle cx="802" cy="594" r="141" fill="url(#core)"/>
<circle cx="802" cy="594" r="99" fill="#0E2D36" stroke="#49D4C2" stroke-opacity="0.7"/>
<path d="M802 364V458" stroke="#49D4C2" stroke-width="5" stroke-linecap="round"/>
<path d="M802 730V824" stroke="#49D4C2" stroke-width="5" stroke-linecap="round"/>
<path d="M572 594H666" stroke="#49D4C2" stroke-width="5" stroke-linecap="round"/>
<path d="M938 594H1032" stroke="#49D4C2" stroke-width="5" stroke-linecap="round"/>
<path d="M652 444L712 504" stroke="#F3C878" stroke-width="4" stroke-linecap="round"/>
<path d="M892 684L952 744" stroke="#F3C878" stroke-width="4" stroke-linecap="round"/>
<path d="M952 444L892 504" stroke="#F3C878" stroke-width="4" stroke-linecap="round"/>
<path d="M712 684L652 744" stroke="#F3C878" stroke-width="4" stroke-linecap="round"/>
</g>
<g opacity="0.9" stroke-linecap="round">
<path d="M274 302H476V380H576V452" stroke="#5ADBCB" stroke-width="3"/>
<path d="M1324 294H1130V370H1032V444" stroke="#5ADBCB" stroke-width="3"/>
<path d="M250 888H458V812H582V742" stroke="#F4C980" stroke-width="3"/>
<path d="M1342 888H1142V814H1026V742" stroke="#F4C980" stroke-width="3"/>
</g>
<circle cx="274" cy="302" r="8" fill="#5ADBCB"/>
<circle cx="1324" cy="294" r="8" fill="#5ADBCB"/>
<circle cx="250" cy="888" r="8" fill="#F4C980"/>
<circle cx="1342" cy="888" r="8" fill="#F4C980"/>
<rect x="180" y="164" width="312" height="156" rx="20" fill="rgba(255,255,255,0.03)" stroke="rgba(255,255,255,0.08)"/>
<text x="216" y="228" fill="#F6E8D5" font-size="24" font-family="Inter, Arial, sans-serif" letter-spacing="2">LEADING TECHNOLOGY</text>
<text x="216" y="274" fill="#D9E7E1" font-size="15" font-family="Inter, Arial, sans-serif">AI, data mesh, cloud-native architecture</text>
<defs>
<linearGradient id="bg" x1="209" y1="82" x2="1358" y2="1058" gradientUnits="userSpaceOnUse">
<stop stop-color="#0E222A"/>
<stop offset="0.46" stop-color="#123542"/>
<stop offset="1" stop-color="#15262C"/>
</linearGradient>
<linearGradient id="panel" x1="160" y1="206" x2="652" y2="664" gradientUnits="userSpaceOnUse">
<stop stop-color="#143541" stop-opacity="0.5"/>
<stop offset="1" stop-color="#0E222A" stop-opacity="0.12"/>
</linearGradient>
<linearGradient id="panel2" x1="1230" y1="150" x2="1230" y2="630" gradientUnits="userSpaceOnUse">
<stop stop-color="#D1B06C" stop-opacity="0.18"/>
<stop offset="1" stop-color="#D1B06C" stop-opacity="0.02"/>
</linearGradient>
<radialGradient id="core" cx="0" cy="0" r="1" gradientUnits="userSpaceOnUse" gradientTransform="translate(802 594) rotate(90) scale(141)">
<stop stop-color="#48D0BF"/>
<stop offset="1" stop-color="#48D0BF" stop-opacity="0"/>
</radialGradient>
</defs>
</svg>
